#!OML:ASF H:\Pregnant\Project 1\Capture day 1\Session 1\femalepreg.ASF
:FULLY-SPECIFIED
:DEGREES
810
root 3.18253 3.90451 24.2762 43.587 -55.497 -39.1819
lowerback 30.4709 4.42628 2.00313
upperback 4.22536 6.24898 2.03151
thorax -11.9895 2.64788 -1.25546
lowerneck -26.838 -2.6355 -0.946468
upperneck 25.5251 -6.93553 10.5225
head 13.6233 -1.67362 2.97424
rclavicle -4.92986e-014 4.92986e-014
rhumerus 22.0238 25.1074 -56.2021
rradius 38.7957
rwrist 6.30389
rhand -8.36034 -11.7498
rfingers 7.12502
rthumb 17.5621 -40.9765
lclavicle -4.92986e-014 4.92986e-014
lhumerus -13.5839 12.4036 76.9371
lradius 29.5988
lwrist 51.4887
lhand -60.933 145.88
lfingers 7.12502
lthumb -33.0396 -241.112
rfemur -84.322 2.27346 -20.5943
rtibia 148.361
rfoot 38.028 36.8057
rtoes 9.91716
lfemur -101.353 -21.5952 -70.7221
ltibia 138.018
lfoot 8.89614 32.0453
ltoes 65.9003
811
root 3.15258 3.93337 24.2651 43.6944 -55.5146 -38.944
lowerback 30.5413 4.49309 1.78701
upperback 4.25042 6.24527 1.90532
thorax -12.0034 2.65091 -1.27885
lowerneck -26.9813 -2.65179 -0.890765
upperneck 25.427 -7.01476 10.6466
head 13.6239 -1.68379 2.99632
rclavicle 5.96354e-014 -4.77083e-014
rhumerus 22.1622 24.9776 -56.5525
rradius 38.4975
rwrist 6.18947
rhand -9.83674 -11.7557
rfingers 7.12502
rthumb 16.1409 -41.1036
lclavicle 5.96354e-014 -4.77083e-014
lhumerus -13.4368 12.2082 76.7249
lradius 29.6671
lwrist 51.6139
lhand -61.0351 145.739
lfingers 7.12502
lthumb -33.1367 -241.232
rfemur -84.3755 1.92282 -20.2329
rtibia 148.454
rfoot 37.5656 36.8719
rtoes 9.24876
lfemur -101.44 -21.4818 -70.2013
ltibia 138.105
lfoot 9.39325 31.5696
ltoes 65.673
812
root 3.12221 3.96279 24.2538 43.7844 -55.5332 -38.6985
lowerback 30.6212 4.56694 1.55168
upperback 4.27574 6.24518 1.78843
thorax -12.0248 2.65627 -1.28285
lowerneck -27.1211 -2.67609 -0.857431
upperneck 25.3297 -7.0995 10.7813
head 13.626 -1.69724 3.02542
rclavicle -5.00937e-014 -1.27222e-014
rhumerus 22.2785 24.8566 -56.8855
rradius 38.2151
rwrist 6.07158
rhand -11.2327 -11.7288
rfingers 7.12502
rthumb 14.7964 -41.1806
lclavicle -5.00937e-014 -1.27222e-014
lhumerus -13.2952 12.0448 76.523
lradius 29.7325
lwrist 51.7089
lhand -61.142 145.599
lfingers 7.12502
lthumb -33.2383 -241.351
rfemur -84.42 1.63477 -19.8708
rtibia 148.527
rfoot 37.1786 36.9129
rtoes 8.58298
lfemur -101.505 -21.3278 -69.6611
ltibia 138.193
lfoot 9.92663 31.0686
ltoes 65.4345
813
root 3.09136 3.99263 24.2425 43.8556 -55.548 -38.4415
lowerback 30.851 4.6422 1.31546
upperback 3.88103 6.2531 1.65596
thorax -11.776 2.66548 -1.26298
lowerneck -27.2515 -2.71006 -0.850291
upperneck 25.2278 -7.19047 10.9298
head 13.6266 -1.71465 3.06303
rclavicle -5.1684e-014 -2.38542e-014
rhumerus 22.3677 24.7416 -57.2021
rradius 37.9486
rwrist 5.95944
rhand -12.5396 -11.6864
rfingers 7.12502
rthumb 13.537 -41.2264
lclavicle -5.1684e-014 -2.38542e-014
lhumerus -13.158 11.9025 76.3301
lradius 29.7942
lwrist 51.7803
lhand -61.2544 145.47
lfingers 7.12502
lthumb -33.3452 -241.457
rfemur -84.4516 1.39747 -19.5105
rtibia 148.577
rfoot 36.8612 36.9436
rtoes 7.90965
lfemur -101.546 -21.1364 -69.0973
ltibia 138.283
lfoot 10.5001 30.5428
ltoes 65.1824
814
root 3.05992 4.02286 24.2311 43.9106 -55.5572 -38.173
lowerback 30.9463 4.72517 1.05723
upperback 3.89933 6.25762 1.55415
thorax -11.8098 2.6741 -1.24063
lowerneck -27.3696 -2.75146 -0.861053
upperneck 25.1188 -7.28474 11.0841
head 13.6231 -1.73517 3.10503
rclavicle -1.08139e-013 -3.33958e-014
rhumerus 22.43 24.6322 -57.5048
rradius 37.6952
rwrist 5.85545
rhand -13.7681 -11.6338
rfingers 7.12502
rthumb 12.3527 -41.2489
lclavicle -1.08139e-013 -3.33958e-014
lhumerus -13.0249 11.7733 76.1434
lradius 29.8528
lwrist 51.8364
lhand -61.3726 145.358
lfingers 7.12502
lthumb -33.4576 -241.544
rfemur -84.4708 1.20605 -19.1525
rtibia 148.603
rfoot 36.6046 36.9736
rtoes 7.22677
lfemur -101.566 -20.9122 -68.5079
ltibia 138.375
lfoot 11.1105 29.993
ltoes 64.9177
815
root 3.02778 4.05345 24.2195 43.9508 -55.5592 -37.8923
lowerback 31.0447 4.81044 0.790409
upperback 3.91537 6.26257 1.45859
thorax -11.8489 2.68322 -1.20773
lowerneck -27.4752 -2.7977 -0.881609
upperneck 25.0025 -7.37967 11.2372
head 13.6145 -1.75783 3.14777
rclavicle -2.38542e-015 -2.06736e-014
rhumerus 22.4682 24.5292 -57.7971
rradius 37.451
rwrist 5.75899
rhand -14.9259 -11.5851
rfingers 7.12502
rthumb 11.2362 -41.2642
lclavicle -2.38542e-015 -2.06736e-014
lhumerus -12.8958 11.6541 75.9601
lradius 29.9094
lwrist 51.8827
lhand -61.4967 145.262
lfingers 7.12502
lthumb -33.5755 -241.615
rfemur -84.477 1.05441 -18.7969
rtibia 148.606
rfoot 36.4267 37.0052
rtoes 6.60974
lfemur -101.568 -20.6602 -67.8942
ltibia 138.469
lfoot 11.7503 29.4217
ltoes 64.6443
816
root 2.99483 4.08441 24.2077 43.9793 -55.5542 -37.6013
lowerback 31.1438 4.89791 0.514897
upperback 3.92938 6.26767 1.36864
thorax -11.8918 2.69278 -1.16464
lowerneck -27.5711 -2.84632 -0.902075
upperneck 24.8812 -7.4733 11.3802
head 13.6013 -1.78186 3.18635
rclavicle -4.77083e-014 2.8625e-014
rhumerus 22.4852 24.4304 -58.084
rradius 37.2114
rwrist 5.67224
rhand -16.0269 -11.5419
rfingers 7.12502
rthumb 10.1742 -41.2759
lclavicle -4.77083e-014 2.8625e-014
lhumerus -12.7704 11.5441 75.7789
lradius 29.9645
lwrist 51.921
lhand -61.6251 145.175
lfingers 7.12502
lthumb -33.6975 -241.675
rfemur -84.4712 0.940506 -18.4416
rtibia 148.587
rfoot 36.3608 37.0332
rtoes 6.1796
lfemur -101.557 -20.3861 -67.2583
ltibia 138.569
lfoot 12.4091 28.8318
ltoes 64.3671
817
root 2.96105 4.11576 24.1955 43.9965 -55.5414 -37.3002
lowerback 31.2434 4.98626 0.230491
upperback 3.94201 6.27103 1.28414
thorax -11.9377 2.70197 -1.11067
lowerneck -27.6632 -2.89544 -0.916228
upperneck 24.7591 -7.56481 11.5081
head 13.5857 -1.8066 3.21813
rclavicle -4.29375e-014 -1.59028e-015
rhumerus 22.4858 24.3341 -58.3711
rradius 36.9717
rwrist 5.60121
rhand -17.0799 -11.502
rfingers 7.12502
rthumb 9.15825 -41.2831
lclavicle -4.29375e-014 -1.59028e-015
lhumerus -12.6489 11.4473 75.598
lradius 30.0185
lwrist 51.9502
lhand -61.7565 145.09
lfingers 7.12502
lthumb -33.8224 -241.733
rfemur -84.4515 0.860155 -18.084
rtibia 148.548
rfoot 36.4565 37.0479
rtoes 6.09537
lfemur -101.535 -20.0957 -66.605
ltibia 138.673
lfoot 13.076 28.2283
ltoes 64.0915
818
root 2.92651 4.14746 24.183 43.9993 -55.5178 -36.9867
lowerback 31.3455 5.07212 -0.0613446
upperback 3.95418 6.26872 1.20511
thorax -11.9863 2.70895 -1.04513
lowerneck -27.7581 -2.94314 -0.921038
upperneck 24.6405 -7.65329 11.6201
head 13.5708 -1.8311 3.24256
rclavicle 6.99722e-014 -5.08889e-014
rhumerus 22.4755 24.2387 -58.6635
rradius 36.7296
rwrist 5.55341
rhand -18.0871 -11.4632
rfingers 7.12502
rthumb 8.18629 -41.2846
lclavicle 6.99722e-014 -5.08889e-014
lhumerus -12.5311 11.3686 75.4153
lradius 30.0706
lwrist 51.9684
lhand -61.8896 144.994
lfingers 7.12502
lthumb -33.9488 -241.801
rfemur -84.4131 0.79968 -17.7224
rtibia 148.493
rfoot 36.7564 37.0417
rtoes 6.49393
lfemur -101.503 -19.7949 -65.9381
ltibia 138.781
lfoot 13.7455 27.6171
ltoes 63.819
819
root 2.89132 4.17945 24.1701 43.9852 -55.4807 -36.6585
lowerback 31.4521 5.15245 -0.358455
upperback 3.96628 6.25752 1.13169
thorax -12.0376 2.71215 -0.967865
lowerneck -27.8627 -2.98923 -0.917328
upperneck 24.5294 -7.73981 11.7185
head 13.5596 -1.85517 3.26069
rclavicle 3.81667e-014 1.43125e-014
rhumerus 22.456 24.1429 -58.9637
rradius 36.4873
rwrist 5.53463
rhand -19.0454 -11.4231
rfingers 7.12502
rthumb 7.26133 -41.2786
lclavicle 3.81667e-014 1.43125e-014
lhumerus -12.4169 11.3114 75.229
lradius 30.1191
lwrist 51.9734
lhand -62.0246 144.872
lfingers 7.12502
lthumb -34.0771 -241.894
rfemur -84.3523 0.742786 -17.3555
rtibia 148.426
rfoot 37.2669 37.0114
rtoes 7.42107
lfemur -101.459 -19.4885 -65.2601
ltibia 138.891
lfoot 14.4159 27.0043
ltoes 63.5482
820
root 2.8556 4.21164 24.1569 43.9528 -55.4275 -36.3141
lowerback 31.5646 5.22425 -0.658906
upperback 3.97847 6.2342 1.0644
thorax -12.0919 2.71008 -0.878138
lowerneck -27.9802 -3.03317 -0.908503
upperneck 24.427 -7.82416 11.8082
head 13.5538 -1.87821 3.27524
rclavicle -6.52014e-014 -5.24792e-014
rhumerus 22.4289 24.0471 -59.2728
rradius 36.2478
rwrist 5.5472
rhand -19.9521 -11.3793
rfingers 7.12502
rthumb 6.38609 -41.263
lclavicle -6.52014e-014 -5.24792e-014
lhumerus -12.3066 11.2767 75.0376
lradius 30.162
lwrist 51.9667
lhand -62.1628 144.71
lfingers 7.12502
lthumb -34.2083 -242.027
rfemur -84.2671 0.671939 -16.9818
rtibia 148.353
rfoot 37.9373 36.9613
rtoes 8.78656
lfemur -101.402 -19.1813 -64.5724
ltibia 139.003
lfoot 15.0884 26.396
ltoes 63.2759
821
root 2.81945 4.24387 24.1433 43.8993 -55.3537 -35.9497
lowerback 31.6844 5.28291 -0.959081
upperback 3.99072 6.19411 1.00322
thorax -12.1492 2.70051 -0.776063
lowerneck -28.1123 -3.07343 -0.896611
upperneck 24.3336 -7.90507 11.8943
head 13.5541 -1.89912 3.2888
rclavicle -3.02153e-014 5.88403e-014
rhumerus 22.3963 23.9539 -59.5909
rradius 36.0129
rwrist 5.58969
rhand -20.8018 -11.335
rfingers 7.12502
rthumb 5.56572 -41.2419
lclavicle -3.02153e-014 5.88403e-014
lhumerus -12.2006 11.2635 74.8378
lradius 30.1977
lwrist 51.953
lhand -62.3045 144.49
lfingers 7.12502
lthumb -34.3428 -242.217
rfemur -84.1547 0.563065 -16.6009
rtibia 148.282
rfoot 38.6656 36.9069
rtoes 10.3773
lfemur -101.331 -18.8801 -63.879
ltibia 139.113
lfoot 15.7634 25.7997
ltoes 62.9989
822
root 2.78294 4.27603 24.1291 43.8227 -55.2561 -35.5621
lowerback 31.8123 5.32431 -1.25682
upperback 4.00281 6.13267 0.947886
thorax -12.2097 2.68136 -0.661227
lowerneck -28.2585 -3.1058 -0.875799
upperneck 24.2489 -7.97832 11.974
head 13.5595 -1.9159 3.30015
rclavicle -2.70347e-014 4.92986e-014
rhumerus 22.3608 23.8676 -59.9187
rradius 35.7828
rwrist 5.65692
rhand -21.5976 -11.2892
rfingers 7.12502
rthumb 4.79733 -41.2149
lclavicle -2.70347e-014 4.92986e-014
lhumerus -12.1007 11.2697 74.6257
lradius 30.2253
lwrist 51.9401
lhand -62.4495 144.2
lfingers 7.12502
lthumb -34.4805 -242.475
rfemur -84.0144 0.39589 -16.2122
rtibia 148.218
rfoot 39.3013 36.8733
rtoes 11.8634
lfemur -101.241 -18.5916 -63.1857
ltibia 139.215
lfoot 16.4404 25.2215
ltoes 62.7143
